<svg height="512pt" viewBox="-8 0 512 512.00003" width="512pt" xmlns="http://www.w3.org/2000/svg" xmlns:xlink="http://www.w3.org/1999/xlink"><linearGradient id="a"><stop offset="0" stop-color="#acc130"/><stop offset=".3485" stop-color="#a9bd31"/><stop offset=".6956" stop-color="#a2b135"/><stop offset="1" stop-color="#97a03b"/></linearGradient><linearGradient id="b" gradientUnits="userSpaceOnUse" x1="156.6257039716" x2="173.3456233128" xlink:href="#a" y1="447.311502008" y2="559.892820971"/><linearGradient id="c" gradientUnits="userSpaceOnUse" x1="324.1742622396" x2="340.8941815808" xlink:href="#a" y1="447.311502008" y2="559.892820971"/><linearGradient id="d" gradientUnits="userSpaceOnUse" x1="356.8743108002" x2="249.4870834808" y1="573.690724939" y2="466.3034976196"><stop offset="0" stop-color="#97a03b" stop-opacity="0"/><stop offset=".3281" stop-color="#7e8545" stop-opacity=".329412"/><stop offset=".7568" stop-color="#626751" stop-opacity=".756863"/><stop offset="1" stop-color="#575c55"/></linearGradient><linearGradient id="e" gradientUnits="userSpaceOnUse" x1="195.087160498" x2="393.481724177" y1="309.1719352002" y2="309.1719352002"><stop offset="0" stop-color="#ff4b3e"/><stop offset=".1888" stop-color="#fb4a3c"/><stop offset=".3876" stop-color="#ee4635"/><stop offset=".5911" stop-color="#d9402a"/><stop offset=".7963" stop-color="#bc381a"/><stop offset="1" stop-color="#972e07"/></linearGradient><linearGradient id="f"><stop offset="0" stop-color="#972e07" stop-opacity="0"/><stop offset="1" stop-color="#582707"/></linearGradient><linearGradient id="g" gradientUnits="userSpaceOnUse" x1="315.037266941" x2="174.5530403022" xlink:href="#f" y1="337.5927662358" y2="144.6608433354"/><linearGradient id="h" gradientUnits="userSpaceOnUse" x1="221.0773959794" x2="308.8520031068" y1="166.9343587884" y2="254.7089659158"><stop offset="0" stop-color="#ffe548"/><stop offset=".2472" stop-color="#ffe042"/><stop offset=".5621" stop-color="#ffd133"/><stop offset=".9123" stop-color="#ffb919"/><stop offset="1" stop-color="#ffb211"/></linearGradient><linearGradient id="i" gradientUnits="userSpaceOnUse" x1="248.185599" x2="248.185599" xlink:href="#f" y1="572.3987777172" y2="352.6741844808"/><linearGradient id="j"><stop offset="0" stop-color="#f2e9dc"/><stop offset=".2282" stop-color="#f0e4d7"/><stop offset=".5158" stop-color="#ead7c7"/><stop offset=".8338" stop-color="#e0c2ad"/><stop offset="1" stop-color="#dab49d"/></linearGradient><linearGradient id="k" gradientUnits="userSpaceOnUse" x1="246.9364188554" x2="249.3361940042" xlink:href="#j" y1="461.8364462884" y2="524.2326080012"/><linearGradient id="l" gradientUnits="userSpaceOnUse" x1="194.5203461368" x2="301.8508518632" xlink:href="#j" y1="103.5783472514" y2="103.5783472514"/><linearGradient id="m" gradientTransform="matrix(-.44805 .898409 -.898409 -.44805 503.956093 -.068166)" gradientUnits="userSpaceOnUse" x1="243.009" x2="349.9186" xlink:href="#j" y1="27.8754" y2="27.8754"/><linearGradient id="n" gradientTransform="matrix(.44805 .898409 .898409 -.44805 145.344366 -.068166)" gradientUnits="userSpaceOnUse" x1="175.0252" x2="281.9348" xlink:href="#j" y1="-108.4426" y2="-108.4426"/><linearGradient id="o" gradientUnits="userSpaceOnUse" x1="330.978042418" x2="249.9733832976" y1="273.3019025324" y2="192.297243412"><stop offset="0" stop-color="#dab49d" stop-opacity="0"/><stop offset=".4385" stop-color="#ce9e7a" stop-opacity=".439216"/><stop offset="1" stop-color="#c08552"/></linearGradient><radialGradient id="p" cx="237.1522954356" cy="181.5515635006" gradientUnits="userSpaceOnUse" r="85.3192146998"><stop offset="0" stop-color="#ffb211"/><stop offset=".2038" stop-color="#ffae13"/><stop offset=".3994" stop-color="#ffa318"/><stop offset=".5916" stop-color="#ff8f20"/><stop offset=".7818" stop-color="#ff742c"/><stop offset=".9689" stop-color="#ff523b"/><stop offset="1" stop-color="#ff4b3e"/></radialGradient><path d="m319.960938 512h-303.554688c-8.980469 0-16.3867188-7.222656-16.40625-16.203125 0-.058594 0-.113281 0-.167969 0-22.339844 8.722656-42.636718 22.949219-57.679687 5.390625-5.507813 11.4375-10.371094 18.023437-14.453125 14.605469-9.058594 31.835938-14.296875 50.292969-14.296875 27.234375 0 51.792969 11.386719 69.195313 29.65625 4.355468 4.570312 10.835937 6.484375 16.9375 4.847656 4.105468-1.105469 8.429687-1.695313 12.890624-1.695313 14.09375 0 26.8125 5.894532 35.828126 15.34375 4.730468 4.972657 11.949218 6.675782 18.402343 4.335938 6.992188-2.539062 14.535157-3.933594 22.40625-3.933594 27.996094 0 51.898438 17.550782 61.308594 42.234375 2.207031 5.800781-2.066406 12.011719-8.273437 12.011719zm0 0" fill="url(#b)"/><path d="m487.511719 512h-303.554688c-8.984375 0-16.390625-7.222656-16.410156-16.203125 0-.058594 0-.113281 0-.167969 0-22.339844 8.722656-42.636718 22.949219-57.679687 5.390625-5.507813 11.441406-10.371094 18.023437-14.453125 14.605469-9.058594 31.839844-14.296875 50.296875-14.296875 27.230469 0 51.789063 11.386719 69.195313 29.65625 4.351562 4.570312 10.832031 6.484375 16.9375 4.847656 4.105469-1.105469 8.425781-1.695313 12.886719-1.695313 14.097656 0 26.8125 5.894532 35.828124 15.34375 4.730469 4.972657 11.949219 6.675782 18.402344 4.335938 6.992188-2.539062 14.535156-3.933594 22.40625-3.933594 27.996094 0 51.898438 17.550782 61.308594 42.234375 2.207031 5.800781-2.066406 12.011719-8.269531 12.011719zm0 0" fill="url(#c)"/><path d="m328.007812 438.855469c-17.402343-18.269531-41.960937-29.65625-69.191406-29.65625-18.457031 0-35.691406 5.238281-50.296875 14.296875-6.585937 4.082031-12.632812 8.945312-18.023437 14.453125-14.226563 15.042969-22.949219 35.339843-22.949219 57.679687v.167969c.019531 8.980469 7.425781 16.203125 16.40625 16.203125h229.289063l-68.296876-68.296875c-6.101562 1.636719-12.582031-.277344-16.9375-4.847656zm0 0" fill="url(#d)"/><path d="m347.886719 487.03125h-199.402344l17.484375-279.796875c3.421875-42.875 39.207031-75.921875 82.214844-75.921875 43.011718 0 78.796875 33.046875 82.21875 75.921875zm0 0" fill="url(#e)"/><path d="m160.507812 297.492188 187.238282 187.238281-17.34375-277.496094c-3.417969-42.875-39.207032-75.921875-82.214844-75.921875s-78.796875 33.046875-82.214844 75.921875l-5.617187 89.855469zm0 0" fill="url(#g)"/><path d="m248.183594 131.3125c-43.007813 0-78.792969 33.046875-82.214844 75.921875l-.109375 1.375h164.652344l-.109375-1.375c-3.421875-42.875-39.207032-75.921875-82.21875-75.921875zm0 0" fill="url(#h)"/><path d="m289.300781 487.03125h-82.234375v-82.234375c0-22.707031 18.410156-41.117187 41.117188-41.117187 22.707031 0 41.117187 18.410156 41.117187 41.117187zm0 0" fill="url(#i)"/><path d="m342.050781 512h-187.730469c-9.769531 0-17.6875-7.917969-17.6875-17.683594 0-9.769531 7.917969-17.6875 17.6875-17.6875h187.730469c9.769531 0 17.6875 7.917969 17.6875 17.6875 0 9.765625-7.917969 17.683594-17.6875 17.683594zm0 0" fill="url(#k)"/><path d="m257.925781 207.15625h-19.476562c-10.320313 0-19.058594-7.605469-20.480469-17.828125l-23.316406-167.535156c-.929688-6.679688 3.109375-13.054688 9.546875-15.070313 28.640625-8.964844 59.332031-8.964844 87.972656 0 6.4375 2.015625 10.476563 8.390625 9.546875 15.070313l-23.316406 167.539062c-1.421875 10.21875-10.160156 17.824219-20.476563 17.824219zm0 0" fill="url(#l)"/><path d="m249.042969 216.277344 8.695312-17.429688c4.605469-9.234375 15.3125-13.660156 25.089844-10.371094l160.335937 53.90625c6.390626 2.148438 10.296876 8.605469 9.226563 15.269532-4.761719 29.628906-18.460937 57.09375-39.261719 78.726562-4.675781 4.859375-12.183594 5.628906-17.75 1.8125l-139.519531-95.632812c-8.511719-5.832032-11.417969-17.046875-6.816406-26.28125zm0 0" fill="url(#m)"/><path d="m247.324219 216.277344-8.691407-17.429688c-4.605468-9.234375-15.3125-13.660156-25.089843-10.371094l-160.332031 53.90625c-6.394532 2.148438-10.296876 8.609376-9.226563 15.269532 4.757813 29.628906 18.457031 57.097656 39.261719 78.726562 4.675781 4.859375 12.179687 5.628906 17.746094 1.816406l139.519531-95.636718c8.511719-5.832032 11.417969-17.046875 6.8125-26.28125zm0 0" fill="url(#n)"/><path d="m295.183594 192.628906-12.355469-4.152344c-9.78125-3.289062-20.488281 1.136719-25.089844 10.371094l-8.695312 17.429688c-4.605469 9.234375-1.695313 20.449218 6.8125 26.28125l80.503906 55.179687 21.074219-42.859375zm0 0" fill="url(#o)"/><path d="m296.894531 207.4375c0 26.902344-21.808593 48.707031-48.710937 48.707031-26.898438 0-48.707032-21.804687-48.707032-48.707031s21.808594-48.707031 48.707032-48.707031c26.902344 0 48.710937 21.804687 48.710937 48.707031zm0 0" fill="url(#p)"/></svg>